# Blender 4.3.0
# www.blender.org
mtllib coin.mtl
o Cube
v 0.642063 0.070698 -0.642063
v 0.642063 -0.070698 -0.642063
v 0.642063 0.070698 0.642063
v 0.642063 -0.070698 0.642063
v -0.642063 0.070698 -0.642063
v -0.642063 -0.070698 -0.642063
v -0.642063 0.070698 0.642063
v -0.642063 -0.070698 0.642063
v -1.000000 -0.070698 0.000000
v 0.000000 -0.070698 -1.000000
v 0.000000 0.070698 1.000000
v 1.000000 0.070698 0.000000
v 0.000000 -0.070698 1.000000
v -1.000000 0.070698 0.000000
v 0.000000 0.070698 -1.000000
v 1.000000 -0.070698 0.000000
v 0.000000 -0.200000 0.000000
v 0.000000 0.200000 0.000000
vn -0.0997 0.9900 0.0997
vn 0.8734 -0.0000 -0.4869
vn 0.8734 -0.0000 0.4869
vn 0.0997 -0.9900 0.0997
vn -0.4869 -0.0000 -0.8734
vn 0.4869 -0.0000 -0.8734
vn -0.8734 -0.0000 0.4869
vn -0.0997 -0.9900 0.0997
vn -0.0997 -0.9900 -0.0997
vn 0.0997 -0.9900 -0.0997
vn -0.8734 -0.0000 -0.4869
vn -0.4869 -0.0000 0.8734
vn 0.0997 0.9900 0.0997
vn 0.0997 0.9900 -0.0997
vn -0.0997 0.9900 -0.0997
vn 0.4869 -0.0000 0.8734
vt 0.750000 0.625000
vt 0.875000 0.625000
vt 0.875000 0.750000
vt 0.750000 0.750000
vt 0.375000 0.500000
vt 0.625000 0.500000
vt 0.625000 0.625000
vt 0.375000 0.625000
vt 0.625000 0.750000
vt 0.375000 0.750000
vt 0.250000 0.625000
vt 0.250000 0.750000
vt 0.375000 0.250000
vt 0.625000 0.250000
vt 0.625000 0.375000
vt 0.375000 0.375000
vt 0.625000 0.000000
vt 0.625000 0.125000
vt 0.375000 0.125000
vt 0.375000 0.000000
vt 0.125000 0.625000
vt 0.125000 0.750000
vt 0.125000 0.500000
vt 0.250000 0.500000
vt 0.375000 0.875000
vt 0.625000 0.875000
vt 0.625000 1.000000
vt 0.375000 1.000000
vt 0.750000 0.500000
vt 0.875000 0.500000
s 0
usemtl Material
f 18/1/1 14/2/1 7/3/1 11/4/1
f 2/5/2 1/6/2 12/7/2 16/8/2
f 16/8/3 12/7/3 3/9/3 4/10/3
f 17/11/4 16/8/4 4/10/4 13/12/4
f 6/13/5 5/14/5 15/15/5 10/16/5
f 10/16/6 15/15/6 1/6/6 2/5/6
f 7/17/7 14/18/7 9/19/7 8/20/7
f 9/21/8 17/11/8 13/12/8 8/22/8
f 6/23/9 10/24/9 17/11/9 9/21/9
f 10/24/10 2/5/10 16/8/10 17/11/10
f 9/19/11 14/18/11 5/14/11 6/13/11
f 13/25/12 11/26/12 7/27/12 8/28/12
f 12/7/13 18/1/13 11/4/13 3/9/13
f 1/6/14 15/29/14 18/1/14 12/7/14
f 15/29/15 5/30/15 14/2/15 18/1/15
f 4/10/16 3/9/16 11/26/16 13/25/16
