# Blender 4.2.3 LTS
# www.blender.org
mtllib gem.mtl
o Cube
v 2.081629 3.356770 -1.000000
v 0.268654 -0.116860 -0.165550
v 1.053896 3.223119 1.660618
v 0.669353 -0.116860 0.436676
v -0.472583 3.779480 -1.029016
v -0.318428 -0.084258 -0.261373
v -0.781255 3.319354 1.883428
v -0.313119 -0.116860 0.033249
v -0.624258 -0.116860 0.000000
v 0.000000 -0.116860 -0.295455
v 0.891767 1.142354 -0.375445
v -0.070014 1.601247 1.000000
v 0.815018 0.883140 0.255871
v -0.221953 1.470956 -0.551533
v 0.234331 1.983281 0.484270
v 1.540814 2.619955 0.000000
v 0.237619 -0.116860 0.320972
v -0.124807 2.601247 0.117444
v 0.676567 2.364054 -0.551533
v 1.000000 -0.116860 0.000000
v 0.224692 1.349517 -0.200795
v 0.767483 1.459732 0.000000
v 0.228857 1.393709 0.000000
v -0.324148 1.242193 0.224234
v 0.000000 1.242193 0.669353
v 0.481862 2.610601 0.224234
vn 0.7359 0.6064 0.3012
vn 0.8550 0.0186 0.5183
vn -0.9912 0.0071 0.1319
vn -0.3628 -0.3549 -0.8617
vn 0.9121 -0.3496 0.2140
vn -0.2212 -0.1772 -0.9590
vn -0.0534 -0.0256 -0.9982
vn 0.3636 -0.0986 -0.9263
vn 0.2469 -0.2484 -0.9367
vn 0.9055 0.0600 0.4201
vn 0.7000 -0.1481 -0.6986
vn 0.8520 -0.4445 0.2765
vn 0.3453 -0.1443 -0.9273
vn 0.4076 -0.3033 0.8613
vn -0.2816 -0.1119 0.9530
vn -0.9338 0.1194 -0.3373
vn -0.7971 -0.0904 0.5971
vn -0.9855 -0.1395 -0.0969
vn -0.1614 -0.3876 0.9076
vn 0.2153 -0.0608 0.9747
vn -0.2521 -0.3225 0.9124
vn -0.4827 0.8584 -0.1738
vn -0.3477 0.9308 0.1130
vn 0.5164 0.7860 0.3399
vt 0.750000 0.625000
vt 0.875000 0.625000
vt 0.875000 0.750000
vt 0.750000 0.750000
vt 0.500000 0.875000
vt 0.625000 0.875000
vt 0.625000 1.000000
vt 0.500000 1.000000
vt 0.500000 0.125000
vt 0.625000 0.125000
vt 0.625000 0.250000
vt 0.500000 0.250000
vt 0.250000 0.625000
vt 0.375000 0.625000
vt 0.375000 0.750000
vt 0.250000 0.750000
vt 0.500000 0.625000
vt 0.625000 0.625000
vt 0.625000 0.750000
vt 0.500000 0.750000
vt 0.500000 0.375000
vt 0.625000 0.375000
vt 0.625000 0.500000
vt 0.500000 0.500000
vt 0.375000 0.375000
vt 0.375000 0.500000
vt 0.375000 0.250000
vt 0.125000 0.625000
vt 0.125000 0.750000
vt 0.125000 0.500000
vt 0.250000 0.500000
vt 0.375000 0.125000
vt 0.375000 0.000000
vt 0.500000 0.000000
vt 0.625000 0.000000
vt 0.375000 0.875000
vt 0.375000 1.000000
vt 0.750000 0.500000
vt 0.875000 0.500000
s 0
usemtl Material
f 26/1/1 18/2/1 7/3/1 15/4/1
f 25/5/2 15/6/2 7/7/2 12/8/2
f 24/9/3 18/10/3 5/11/3 14/12/3
f 22/17/5 16/18/5 3/19/5 13/20/5
f 21/21/6 19/22/6 1/23/6 11/24/6
f 10/25/7 21/21/7 11/24/7 2/26/7
f 6/27/8 14/12/8 21/21/8 10/25/8
f 14/12/9 5/11/9 19/22/9 21/21/9
f 20/14/10 22/17/10 13/20/10 4/15/10
f 2/26/11 11/24/11 22/17/11 20/14/11
f 11/24/12 1/23/12 16/18/12 22/17/12
f 9/32/16 24/9/16 14/12/16 6/27/16
f 8/33/17 12/34/17 24/9/17 9/32/17
f 12/34/18 7/35/18 18/10/18 24/9/18
f 17/36/19 25/5/19 12/8/19 8/37/19
f 4/15/20 13/20/20 25/5/20 17/36/20
f 13/20/21 3/19/21 15/6/21 25/5/21
f 16/18/22 26/1/22 15/4/22 3/19/22
f 1/23/23 19/38/23 26/1/23 16/18/23
f 19/38/24 5/39/24 18/2/24 26/1/24
usemtl Material.001
f 23/13/4 20/14/4 4/15/4 17/16/4
f 9/28/13 23/13/13 17/16/13 8/29/13
f 6/30/14 10/31/14 23/13/14 9/28/14
f 10/31/15 2/26/15 20/14/15 23/13/15
